<mxfile host="Electron" agent="Mozilla/5.0 (Windows NT 10.0; Win64; x64) AppleWebKit/537.36 (KHTML, like Gecko) draw.io/24.7.5 Chrome/126.0.6478.183 Electron/31.3.0 Safari/537.36" version="24.7.5">
  <diagram name="Page-1" id="eDku-7B4B12ZgCLrfmw9">
    <mxGraphModel dx="1229" dy="591" grid="1" gridSize="10" guides="1" tooltips="1" connect="1" arrows="1" fold="1" page="1" pageScale="1" pageWidth="850" pageHeight="1100" math="0" shadow="0">
      <root>
        <mxCell id="0" />
        <mxCell id="1" parent="0" />
        <mxCell id="2tcHuFUEEWmX2OaBf_0v-1" value="PASSENGER" style="rounded=0;whiteSpace=wrap;html=1;" vertex="1" parent="1">
          <mxGeometry x="220" y="200" width="90" height="40" as="geometry" />
        </mxCell>
        <mxCell id="2tcHuFUEEWmX2OaBf_0v-2" value="LOCATION" style="rounded=0;whiteSpace=wrap;html=1;" vertex="1" parent="1">
          <mxGeometry x="520" y="200" width="90" height="40" as="geometry" />
        </mxCell>
        <mxCell id="2tcHuFUEEWmX2OaBf_0v-3" value="DRIVER" style="rounded=0;whiteSpace=wrap;html=1;" vertex="1" parent="1">
          <mxGeometry x="360" y="480" width="90" height="40" as="geometry" />
        </mxCell>
        <mxCell id="2tcHuFUEEWmX2OaBf_0v-10" value="ACCEPT" style="shape=rhombus;perimeter=rhombusPerimeter;whiteSpace=wrap;html=1;align=center;" vertex="1" parent="1">
          <mxGeometry x="500" y="360" width="90" height="40" as="geometry" />
        </mxCell>
        <mxCell id="2tcHuFUEEWmX2OaBf_0v-11" value="REQUEST" style="shape=rhombus;perimeter=rhombusPerimeter;whiteSpace=wrap;html=1;align=center;" vertex="1" parent="1">
          <mxGeometry x="260" y="340" width="90" height="40" as="geometry" />
        </mxCell>
        <mxCell id="2tcHuFUEEWmX2OaBf_0v-12" value="GIVE" style="shape=rhombus;perimeter=rhombusPerimeter;whiteSpace=wrap;html=1;align=center;" vertex="1" parent="1">
          <mxGeometry x="370" y="200" width="90" height="40" as="geometry" />
        </mxCell>
        <mxCell id="2tcHuFUEEWmX2OaBf_0v-13" value="" style="endArrow=none;html=1;rounded=0;exitX=0.638;exitY=1.04;exitDx=0;exitDy=0;exitPerimeter=0;entryX=0.5;entryY=0;entryDx=0;entryDy=0;" edge="1" parent="1" source="2tcHuFUEEWmX2OaBf_0v-1" target="2tcHuFUEEWmX2OaBf_0v-11">
          <mxGeometry relative="1" as="geometry">
            <mxPoint x="330" y="460" as="sourcePoint" />
            <mxPoint x="490" y="460" as="targetPoint" />
          </mxGeometry>
        </mxCell>
        <mxCell id="2tcHuFUEEWmX2OaBf_0v-80" value="M" style="edgeLabel;html=1;align=center;verticalAlign=middle;resizable=0;points=[];" vertex="1" connectable="0" parent="2tcHuFUEEWmX2OaBf_0v-13">
          <mxGeometry x="0.2536" y="-1" relative="1" as="geometry">
            <mxPoint as="offset" />
          </mxGeometry>
        </mxCell>
        <mxCell id="2tcHuFUEEWmX2OaBf_0v-14" value="" style="endArrow=none;html=1;rounded=0;exitX=0.5;exitY=1;exitDx=0;exitDy=0;entryX=0;entryY=0;entryDx=0;entryDy=0;" edge="1" parent="1" source="2tcHuFUEEWmX2OaBf_0v-11" target="2tcHuFUEEWmX2OaBf_0v-3">
          <mxGeometry relative="1" as="geometry">
            <mxPoint x="287" y="252" as="sourcePoint" />
            <mxPoint x="315" y="350" as="targetPoint" />
          </mxGeometry>
        </mxCell>
        <mxCell id="2tcHuFUEEWmX2OaBf_0v-81" value="M" style="edgeLabel;html=1;align=center;verticalAlign=middle;resizable=0;points=[];" vertex="1" connectable="0" parent="2tcHuFUEEWmX2OaBf_0v-14">
          <mxGeometry x="-0.2286" y="-2" relative="1" as="geometry">
            <mxPoint as="offset" />
          </mxGeometry>
        </mxCell>
        <mxCell id="2tcHuFUEEWmX2OaBf_0v-15" value="" style="endArrow=none;html=1;rounded=0;exitX=1;exitY=0.5;exitDx=0;exitDy=0;entryX=0;entryY=0.5;entryDx=0;entryDy=0;" edge="1" parent="1">
          <mxGeometry relative="1" as="geometry">
            <mxPoint x="311" y="220" as="sourcePoint" />
            <mxPoint x="371" y="220" as="targetPoint" />
          </mxGeometry>
        </mxCell>
        <mxCell id="2tcHuFUEEWmX2OaBf_0v-75" value="1" style="edgeLabel;html=1;align=center;verticalAlign=middle;resizable=0;points=[];" vertex="1" connectable="0" parent="2tcHuFUEEWmX2OaBf_0v-15">
          <mxGeometry x="-0.2381" y="-3" relative="1" as="geometry">
            <mxPoint as="offset" />
          </mxGeometry>
        </mxCell>
        <mxCell id="2tcHuFUEEWmX2OaBf_0v-79" value="1" style="edgeLabel;html=1;align=center;verticalAlign=middle;resizable=0;points=[];" vertex="1" connectable="0" parent="2tcHuFUEEWmX2OaBf_0v-15">
          <mxGeometry x="-0.1839" y="-4" relative="1" as="geometry">
            <mxPoint as="offset" />
          </mxGeometry>
        </mxCell>
        <mxCell id="2tcHuFUEEWmX2OaBf_0v-16" value="1" style="endArrow=none;html=1;rounded=0;exitX=0;exitY=0.5;exitDx=0;exitDy=0;entryX=1;entryY=0.5;entryDx=0;entryDy=0;" edge="1" parent="1" source="2tcHuFUEEWmX2OaBf_0v-2" target="2tcHuFUEEWmX2OaBf_0v-12">
          <mxGeometry relative="1" as="geometry">
            <mxPoint x="320" y="230" as="sourcePoint" />
            <mxPoint x="380" y="230" as="targetPoint" />
          </mxGeometry>
        </mxCell>
        <mxCell id="2tcHuFUEEWmX2OaBf_0v-76" value="1" style="edgeLabel;html=1;align=center;verticalAlign=middle;resizable=0;points=[];" vertex="1" connectable="0" parent="2tcHuFUEEWmX2OaBf_0v-16">
          <mxGeometry x="0.0952" y="-2" relative="1" as="geometry">
            <mxPoint as="offset" />
          </mxGeometry>
        </mxCell>
        <mxCell id="2tcHuFUEEWmX2OaBf_0v-17" value="" style="endArrow=none;html=1;rounded=0;exitX=0.5;exitY=1;exitDx=0;exitDy=0;entryX=1;entryY=0;entryDx=0;entryDy=0;" edge="1" parent="1">
          <mxGeometry relative="1" as="geometry">
            <mxPoint x="546" y="400" as="sourcePoint" />
            <mxPoint x="451" y="480" as="targetPoint" />
          </mxGeometry>
        </mxCell>
        <mxCell id="2tcHuFUEEWmX2OaBf_0v-77" value="1" style="edgeLabel;html=1;align=center;verticalAlign=middle;resizable=0;points=[];" vertex="1" connectable="0" parent="2tcHuFUEEWmX2OaBf_0v-17">
          <mxGeometry x="0.1756" y="4" relative="1" as="geometry">
            <mxPoint x="1" as="offset" />
          </mxGeometry>
        </mxCell>
        <mxCell id="2tcHuFUEEWmX2OaBf_0v-18" value="1" style="endArrow=none;html=1;rounded=0;exitX=0.5;exitY=0;exitDx=0;exitDy=0;entryX=0.5;entryY=1;entryDx=0;entryDy=0;" edge="1" parent="1" source="2tcHuFUEEWmX2OaBf_0v-10" target="2tcHuFUEEWmX2OaBf_0v-2">
          <mxGeometry relative="1" as="geometry">
            <mxPoint x="555" y="410" as="sourcePoint" />
            <mxPoint x="460" y="490" as="targetPoint" />
          </mxGeometry>
        </mxCell>
        <mxCell id="2tcHuFUEEWmX2OaBf_0v-78" value="M" style="edgeLabel;html=1;align=center;verticalAlign=middle;resizable=0;points=[];" vertex="1" connectable="0" parent="2tcHuFUEEWmX2OaBf_0v-18">
          <mxGeometry x="0.049" y="1" relative="1" as="geometry">
            <mxPoint as="offset" />
          </mxGeometry>
        </mxCell>
        <mxCell id="2tcHuFUEEWmX2OaBf_0v-19" value="Fname" style="ellipse;whiteSpace=wrap;html=1;align=center;" vertex="1" parent="1">
          <mxGeometry x="260" y="490" width="70" height="30" as="geometry" />
        </mxCell>
        <mxCell id="2tcHuFUEEWmX2OaBf_0v-20" value="Lname" style="ellipse;whiteSpace=wrap;html=1;align=center;" vertex="1" parent="1">
          <mxGeometry x="290" y="540" width="70" height="30" as="geometry" />
        </mxCell>
        <mxCell id="2tcHuFUEEWmX2OaBf_0v-21" value="Number" style="ellipse;whiteSpace=wrap;html=1;align=center;" vertex="1" parent="1">
          <mxGeometry x="350" y="580" width="70" height="30" as="geometry" />
        </mxCell>
        <mxCell id="2tcHuFUEEWmX2OaBf_0v-22" value="Password" style="ellipse;whiteSpace=wrap;html=1;align=center;" vertex="1" parent="1">
          <mxGeometry x="480" y="540" width="70" height="30" as="geometry" />
        </mxCell>
        <mxCell id="2tcHuFUEEWmX2OaBf_0v-24" value="Rating" style="ellipse;whiteSpace=wrap;html=1;align=center;" vertex="1" parent="1">
          <mxGeometry x="430" y="580" width="70" height="30" as="geometry" />
        </mxCell>
        <mxCell id="2tcHuFUEEWmX2OaBf_0v-25" value="Fname" style="ellipse;whiteSpace=wrap;html=1;align=center;" vertex="1" parent="1">
          <mxGeometry x="220" y="150" width="70" height="30" as="geometry" />
        </mxCell>
        <mxCell id="2tcHuFUEEWmX2OaBf_0v-26" value="Lname" style="ellipse;whiteSpace=wrap;html=1;align=center;" vertex="1" parent="1">
          <mxGeometry x="130" y="160" width="70" height="30" as="geometry" />
        </mxCell>
        <mxCell id="2tcHuFUEEWmX2OaBf_0v-27" value="Number" style="ellipse;whiteSpace=wrap;html=1;align=center;" vertex="1" parent="1">
          <mxGeometry x="70" y="200" width="70" height="30" as="geometry" />
        </mxCell>
        <mxCell id="2tcHuFUEEWmX2OaBf_0v-28" value="Password" style="ellipse;whiteSpace=wrap;html=1;align=center;" vertex="1" parent="1">
          <mxGeometry x="130" y="290" width="70" height="30" as="geometry" />
        </mxCell>
        <mxCell id="2tcHuFUEEWmX2OaBf_0v-31" value="Longitude" style="ellipse;whiteSpace=wrap;html=1;align=center;" vertex="1" parent="1">
          <mxGeometry x="610" y="260" width="70" height="30" as="geometry" />
        </mxCell>
        <mxCell id="2tcHuFUEEWmX2OaBf_0v-32" value="Latitude" style="ellipse;whiteSpace=wrap;html=1;align=center;" vertex="1" parent="1">
          <mxGeometry x="690" y="205" width="70" height="30" as="geometry" />
        </mxCell>
        <mxCell id="2tcHuFUEEWmX2OaBf_0v-34" value="" style="endArrow=none;html=1;rounded=0;exitX=0.75;exitY=0;exitDx=0;exitDy=0;entryX=0.5;entryY=1;entryDx=0;entryDy=0;" edge="1" parent="1" source="2tcHuFUEEWmX2OaBf_0v-2">
          <mxGeometry relative="1" as="geometry">
            <mxPoint x="400" y="370" as="sourcePoint" />
            <mxPoint x="645" y="170" as="targetPoint" />
          </mxGeometry>
        </mxCell>
        <mxCell id="2tcHuFUEEWmX2OaBf_0v-35" value="" style="endArrow=none;html=1;rounded=0;exitX=1;exitY=0.5;exitDx=0;exitDy=0;entryX=0;entryY=0.5;entryDx=0;entryDy=0;" edge="1" parent="1" source="2tcHuFUEEWmX2OaBf_0v-2" target="2tcHuFUEEWmX2OaBf_0v-32">
          <mxGeometry relative="1" as="geometry">
            <mxPoint x="598" y="210" as="sourcePoint" />
            <mxPoint x="655" y="180" as="targetPoint" />
          </mxGeometry>
        </mxCell>
        <mxCell id="2tcHuFUEEWmX2OaBf_0v-36" value="" style="endArrow=none;html=1;rounded=0;exitX=1;exitY=0.75;exitDx=0;exitDy=0;entryX=1;entryY=0;entryDx=0;entryDy=0;" edge="1" parent="1" source="2tcHuFUEEWmX2OaBf_0v-2" target="2tcHuFUEEWmX2OaBf_0v-31">
          <mxGeometry relative="1" as="geometry">
            <mxPoint x="620" y="230" as="sourcePoint" />
            <mxPoint x="700" y="230" as="targetPoint" />
          </mxGeometry>
        </mxCell>
        <mxCell id="2tcHuFUEEWmX2OaBf_0v-37" value="" style="endArrow=none;html=1;rounded=0;exitX=0.5;exitY=0;exitDx=0;exitDy=0;entryX=0.5;entryY=1;entryDx=0;entryDy=0;" edge="1" parent="1" source="2tcHuFUEEWmX2OaBf_0v-1" target="2tcHuFUEEWmX2OaBf_0v-25">
          <mxGeometry relative="1" as="geometry">
            <mxPoint x="620" y="240" as="sourcePoint" />
            <mxPoint x="680" y="274" as="targetPoint" />
          </mxGeometry>
        </mxCell>
        <mxCell id="2tcHuFUEEWmX2OaBf_0v-38" value="" style="endArrow=none;html=1;rounded=0;exitX=1;exitY=1;exitDx=0;exitDy=0;entryX=0.25;entryY=0;entryDx=0;entryDy=0;" edge="1" parent="1" source="2tcHuFUEEWmX2OaBf_0v-26" target="2tcHuFUEEWmX2OaBf_0v-1">
          <mxGeometry relative="1" as="geometry">
            <mxPoint x="275" y="210" as="sourcePoint" />
            <mxPoint x="290" y="186" as="targetPoint" />
          </mxGeometry>
        </mxCell>
        <mxCell id="2tcHuFUEEWmX2OaBf_0v-39" value="" style="endArrow=none;html=1;rounded=0;exitX=1;exitY=0.5;exitDx=0;exitDy=0;entryX=0;entryY=0.5;entryDx=0;entryDy=0;" edge="1" parent="1" source="2tcHuFUEEWmX2OaBf_0v-27" target="2tcHuFUEEWmX2OaBf_0v-1">
          <mxGeometry relative="1" as="geometry">
            <mxPoint x="200" y="196" as="sourcePoint" />
            <mxPoint x="253" y="210" as="targetPoint" />
          </mxGeometry>
        </mxCell>
        <mxCell id="2tcHuFUEEWmX2OaBf_0v-40" value="" style="endArrow=none;html=1;rounded=0;exitX=1;exitY=0;exitDx=0;exitDy=0;" edge="1" parent="1">
          <mxGeometry relative="1" as="geometry">
            <mxPoint x="119.74873734152914" y="254.39339828220182" as="sourcePoint" />
            <mxPoint x="220" y="230" as="targetPoint" />
          </mxGeometry>
        </mxCell>
        <mxCell id="2tcHuFUEEWmX2OaBf_0v-41" value="" style="endArrow=none;html=1;rounded=0;exitX=0.5;exitY=0;exitDx=0;exitDy=0;" edge="1" parent="1" source="2tcHuFUEEWmX2OaBf_0v-28">
          <mxGeometry relative="1" as="geometry">
            <mxPoint x="130" y="264" as="sourcePoint" />
            <mxPoint x="230" y="240" as="targetPoint" />
          </mxGeometry>
        </mxCell>
        <mxCell id="2tcHuFUEEWmX2OaBf_0v-42" value="" style="endArrow=none;html=1;rounded=0;exitX=0.626;exitY=0.013;exitDx=0;exitDy=0;exitPerimeter=0;entryX=0;entryY=0.25;entryDx=0;entryDy=0;" edge="1" parent="1" source="2tcHuFUEEWmX2OaBf_0v-19" target="2tcHuFUEEWmX2OaBf_0v-3">
          <mxGeometry relative="1" as="geometry">
            <mxPoint x="175" y="300" as="sourcePoint" />
            <mxPoint x="240" y="250" as="targetPoint" />
          </mxGeometry>
        </mxCell>
        <mxCell id="2tcHuFUEEWmX2OaBf_0v-43" value="" style="endArrow=none;html=1;rounded=0;exitX=1;exitY=0;exitDx=0;exitDy=0;" edge="1" parent="1" source="2tcHuFUEEWmX2OaBf_0v-20">
          <mxGeometry relative="1" as="geometry">
            <mxPoint x="314" y="500" as="sourcePoint" />
            <mxPoint x="360" y="520" as="targetPoint" />
          </mxGeometry>
        </mxCell>
        <mxCell id="2tcHuFUEEWmX2OaBf_0v-44" value="" style="endArrow=none;html=1;rounded=0;exitX=0.5;exitY=0;exitDx=0;exitDy=0;entryX=0.371;entryY=1.08;entryDx=0;entryDy=0;entryPerimeter=0;" edge="1" parent="1" source="2tcHuFUEEWmX2OaBf_0v-21" target="2tcHuFUEEWmX2OaBf_0v-3">
          <mxGeometry relative="1" as="geometry">
            <mxPoint x="360" y="554" as="sourcePoint" />
            <mxPoint x="370" y="530" as="targetPoint" />
          </mxGeometry>
        </mxCell>
        <mxCell id="2tcHuFUEEWmX2OaBf_0v-45" value="" style="endArrow=none;html=1;rounded=0;exitX=0.323;exitY=-0.08;exitDx=0;exitDy=0;entryX=0.611;entryY=1.06;entryDx=0;entryDy=0;entryPerimeter=0;exitPerimeter=0;" edge="1" parent="1" source="2tcHuFUEEWmX2OaBf_0v-24" target="2tcHuFUEEWmX2OaBf_0v-3">
          <mxGeometry relative="1" as="geometry">
            <mxPoint x="395" y="590" as="sourcePoint" />
            <mxPoint x="403" y="533" as="targetPoint" />
          </mxGeometry>
        </mxCell>
        <mxCell id="2tcHuFUEEWmX2OaBf_0v-46" value="" style="endArrow=none;html=1;rounded=0;exitX=0;exitY=0;exitDx=0;exitDy=0;entryX=1;entryY=0.75;entryDx=0;entryDy=0;" edge="1" parent="1" source="2tcHuFUEEWmX2OaBf_0v-22" target="2tcHuFUEEWmX2OaBf_0v-3">
          <mxGeometry relative="1" as="geometry">
            <mxPoint x="463" y="588" as="sourcePoint" />
            <mxPoint x="425" y="532" as="targetPoint" />
          </mxGeometry>
        </mxCell>
        <mxCell id="2tcHuFUEEWmX2OaBf_0v-47" value="" style="endArrow=none;html=1;rounded=0;exitX=-0.014;exitY=0.733;exitDx=0;exitDy=0;entryX=1;entryY=0.5;entryDx=0;entryDy=0;exitPerimeter=0;" edge="1" parent="1" target="2tcHuFUEEWmX2OaBf_0v-3">
          <mxGeometry relative="1" as="geometry">
            <mxPoint x="519.02" y="511.99" as="sourcePoint" />
            <mxPoint x="460" y="520" as="targetPoint" />
          </mxGeometry>
        </mxCell>
        <mxCell id="2tcHuFUEEWmX2OaBf_0v-51" value="Did" style="ellipse;whiteSpace=wrap;html=1;align=center;fontStyle=4;" vertex="1" parent="1">
          <mxGeometry x="520" y="500" width="70" height="30" as="geometry" />
        </mxCell>
        <mxCell id="2tcHuFUEEWmX2OaBf_0v-52" value="Pid" style="ellipse;whiteSpace=wrap;html=1;align=center;fontStyle=4;" vertex="1" parent="1">
          <mxGeometry x="60" y="240" width="70" height="30" as="geometry" />
        </mxCell>
        <mxCell id="2tcHuFUEEWmX2OaBf_0v-53" value="Lid" style="ellipse;whiteSpace=wrap;html=1;align=center;fontStyle=4;" vertex="1" parent="1">
          <mxGeometry x="630" y="150" width="70" height="30" as="geometry" />
        </mxCell>
        <mxCell id="2tcHuFUEEWmX2OaBf_0v-54" value="Rating and Reveiw" style="whiteSpace=wrap;html=1;align=center;" vertex="1" parent="1">
          <mxGeometry x="383" y="320" width="85" height="30" as="geometry" />
        </mxCell>
        <mxCell id="2tcHuFUEEWmX2OaBf_0v-55" value="Rid" style="ellipse;whiteSpace=wrap;html=1;align=center;fontStyle=4;" vertex="1" parent="1">
          <mxGeometry x="460" y="290" width="70" height="30" as="geometry" />
        </mxCell>
        <mxCell id="2tcHuFUEEWmX2OaBf_0v-56" value="Rscore" style="ellipse;whiteSpace=wrap;html=1;align=center;" vertex="1" parent="1">
          <mxGeometry x="410" y="260" width="70" height="30" as="geometry" />
        </mxCell>
        <mxCell id="2tcHuFUEEWmX2OaBf_0v-57" value="Review" style="ellipse;whiteSpace=wrap;html=1;align=center;" vertex="1" parent="1">
          <mxGeometry x="425" y="360" width="70" height="30" as="geometry" />
        </mxCell>
        <mxCell id="2tcHuFUEEWmX2OaBf_0v-58" value="" style="endArrow=none;html=1;rounded=0;exitX=0.5;exitY=0;exitDx=0;exitDy=0;entryX=0.5;entryY=1;entryDx=0;entryDy=0;" edge="1" parent="1" source="2tcHuFUEEWmX2OaBf_0v-54" target="2tcHuFUEEWmX2OaBf_0v-56">
          <mxGeometry relative="1" as="geometry">
            <mxPoint x="275" y="210" as="sourcePoint" />
            <mxPoint x="265" y="190" as="targetPoint" />
          </mxGeometry>
        </mxCell>
        <mxCell id="2tcHuFUEEWmX2OaBf_0v-59" value="" style="endArrow=none;html=1;rounded=0;exitX=1;exitY=0.75;exitDx=0;exitDy=0;entryX=0.5;entryY=1;entryDx=0;entryDy=0;" edge="1" parent="1" source="2tcHuFUEEWmX2OaBf_0v-54" target="2tcHuFUEEWmX2OaBf_0v-55">
          <mxGeometry relative="1" as="geometry">
            <mxPoint x="436" y="330" as="sourcePoint" />
            <mxPoint x="455" y="300" as="targetPoint" />
          </mxGeometry>
        </mxCell>
        <mxCell id="2tcHuFUEEWmX2OaBf_0v-60" value="" style="endArrow=none;html=1;rounded=0;exitX=0.75;exitY=1;exitDx=0;exitDy=0;entryX=1;entryY=0;entryDx=0;entryDy=0;" edge="1" parent="1" source="2tcHuFUEEWmX2OaBf_0v-54" target="2tcHuFUEEWmX2OaBf_0v-57">
          <mxGeometry relative="1" as="geometry">
            <mxPoint x="478" y="353" as="sourcePoint" />
            <mxPoint x="505" y="330" as="targetPoint" />
          </mxGeometry>
        </mxCell>
        <mxCell id="2tcHuFUEEWmX2OaBf_0v-61" value="PROVIDE" style="shape=rhombus;perimeter=rhombusPerimeter;whiteSpace=wrap;html=1;align=center;" vertex="1" parent="1">
          <mxGeometry x="310" y="270" width="90" height="40" as="geometry" />
        </mxCell>
        <mxCell id="2tcHuFUEEWmX2OaBf_0v-62" value="RECEIVE" style="shape=rhombus;perimeter=rhombusPerimeter;whiteSpace=wrap;html=1;align=center;" vertex="1" parent="1">
          <mxGeometry x="340" y="390" width="90" height="40" as="geometry" />
        </mxCell>
        <mxCell id="2tcHuFUEEWmX2OaBf_0v-63" value="" style="endArrow=none;html=1;rounded=0;exitX=0.904;exitY=1.02;exitDx=0;exitDy=0;exitPerimeter=0;entryX=0;entryY=0;entryDx=0;entryDy=0;" edge="1" parent="1" source="2tcHuFUEEWmX2OaBf_0v-1" target="2tcHuFUEEWmX2OaBf_0v-61">
          <mxGeometry relative="1" as="geometry">
            <mxPoint x="280" y="330" as="sourcePoint" />
            <mxPoint x="440" y="330" as="targetPoint" />
          </mxGeometry>
        </mxCell>
        <mxCell id="2tcHuFUEEWmX2OaBf_0v-84" value="1" style="edgeLabel;html=1;align=center;verticalAlign=middle;resizable=0;points=[];" vertex="1" connectable="0" parent="2tcHuFUEEWmX2OaBf_0v-63">
          <mxGeometry x="0.0362" relative="1" as="geometry">
            <mxPoint x="1" as="offset" />
          </mxGeometry>
        </mxCell>
        <mxCell id="2tcHuFUEEWmX2OaBf_0v-64" value="" style="endArrow=none;html=1;rounded=0;exitX=0.25;exitY=1;exitDx=0;exitDy=0;entryX=0.5;entryY=0;entryDx=0;entryDy=0;" edge="1" parent="1" source="2tcHuFUEEWmX2OaBf_0v-54" target="2tcHuFUEEWmX2OaBf_0v-62">
          <mxGeometry relative="1" as="geometry">
            <mxPoint x="311" y="251" as="sourcePoint" />
            <mxPoint x="343" y="290" as="targetPoint" />
          </mxGeometry>
        </mxCell>
        <mxCell id="2tcHuFUEEWmX2OaBf_0v-82" value="M" style="edgeLabel;html=1;align=center;verticalAlign=middle;resizable=0;points=[];" vertex="1" connectable="0" parent="2tcHuFUEEWmX2OaBf_0v-64">
          <mxGeometry x="-0.082" y="1" relative="1" as="geometry">
            <mxPoint as="offset" />
          </mxGeometry>
        </mxCell>
        <mxCell id="2tcHuFUEEWmX2OaBf_0v-65" value="" style="endArrow=none;html=1;rounded=0;exitX=0.5;exitY=1;exitDx=0;exitDy=0;entryX=0.5;entryY=0;entryDx=0;entryDy=0;" edge="1" parent="1" source="2tcHuFUEEWmX2OaBf_0v-62" target="2tcHuFUEEWmX2OaBf_0v-3">
          <mxGeometry relative="1" as="geometry">
            <mxPoint x="414" y="360" as="sourcePoint" />
            <mxPoint x="395" y="400" as="targetPoint" />
          </mxGeometry>
        </mxCell>
        <mxCell id="2tcHuFUEEWmX2OaBf_0v-83" value="1" style="edgeLabel;html=1;align=center;verticalAlign=middle;resizable=0;points=[];" vertex="1" connectable="0" parent="2tcHuFUEEWmX2OaBf_0v-65">
          <mxGeometry x="0.4156" y="1" relative="1" as="geometry">
            <mxPoint y="-1" as="offset" />
          </mxGeometry>
        </mxCell>
        <mxCell id="2tcHuFUEEWmX2OaBf_0v-66" value="" style="endArrow=none;html=1;rounded=0;exitX=0.5;exitY=1;exitDx=0;exitDy=0;" edge="1" parent="1" source="2tcHuFUEEWmX2OaBf_0v-61" target="2tcHuFUEEWmX2OaBf_0v-54">
          <mxGeometry relative="1" as="geometry">
            <mxPoint x="395" y="440" as="sourcePoint" />
            <mxPoint x="415" y="490" as="targetPoint" />
          </mxGeometry>
        </mxCell>
        <mxCell id="2tcHuFUEEWmX2OaBf_0v-85" value="M" style="edgeLabel;html=1;align=center;verticalAlign=middle;resizable=0;points=[];" vertex="1" connectable="0" parent="2tcHuFUEEWmX2OaBf_0v-66">
          <mxGeometry x="-0.2258" relative="1" as="geometry">
            <mxPoint x="-1" as="offset" />
          </mxGeometry>
        </mxCell>
        <mxCell id="2tcHuFUEEWmX2OaBf_0v-67" value="Age" style="ellipse;whiteSpace=wrap;html=1;align=center;dashed=1;" vertex="1" parent="1">
          <mxGeometry x="70" y="280" width="50" height="30" as="geometry" />
        </mxCell>
        <mxCell id="2tcHuFUEEWmX2OaBf_0v-68" value="" style="endArrow=none;html=1;rounded=0;exitX=1;exitY=0;exitDx=0;exitDy=0;entryX=0;entryY=1;entryDx=0;entryDy=0;" edge="1" parent="1" source="2tcHuFUEEWmX2OaBf_0v-67" target="2tcHuFUEEWmX2OaBf_0v-1">
          <mxGeometry relative="1" as="geometry">
            <mxPoint x="129.74873734152914" y="264.3933982822018" as="sourcePoint" />
            <mxPoint x="230" y="240" as="targetPoint" />
          </mxGeometry>
        </mxCell>
        <mxCell id="2tcHuFUEEWmX2OaBf_0v-69" value="" style="endArrow=none;html=1;rounded=0;exitX=0.5;exitY=0;exitDx=0;exitDy=0;entryX=0.5;entryY=1;entryDx=0;entryDy=0;" edge="1" parent="1" source="2tcHuFUEEWmX2OaBf_0v-70" target="2tcHuFUEEWmX2OaBf_0v-1">
          <mxGeometry relative="1" as="geometry">
            <mxPoint x="190" y="284" as="sourcePoint" />
            <mxPoint x="297" y="240" as="targetPoint" />
          </mxGeometry>
        </mxCell>
        <mxCell id="2tcHuFUEEWmX2OaBf_0v-70" value="Gender" style="ellipse;whiteSpace=wrap;html=1;align=center;" vertex="1" parent="1">
          <mxGeometry x="207" y="290" width="70" height="30" as="geometry" />
        </mxCell>
        <mxCell id="2tcHuFUEEWmX2OaBf_0v-71" value="Age" style="ellipse;whiteSpace=wrap;html=1;align=center;dashed=1;" vertex="1" parent="1">
          <mxGeometry x="223" y="530" width="50" height="30" as="geometry" />
        </mxCell>
        <mxCell id="2tcHuFUEEWmX2OaBf_0v-72" value="Gender" style="ellipse;whiteSpace=wrap;html=1;align=center;" vertex="1" parent="1">
          <mxGeometry x="390.5" y="620" width="70" height="30" as="geometry" />
        </mxCell>
        <mxCell id="2tcHuFUEEWmX2OaBf_0v-73" value="" style="endArrow=none;html=1;rounded=0;exitX=0.5;exitY=0;exitDx=0;exitDy=0;entryX=0.629;entryY=1.04;entryDx=0;entryDy=0;entryPerimeter=0;" edge="1" parent="1" source="2tcHuFUEEWmX2OaBf_0v-72" target="2tcHuFUEEWmX2OaBf_0v-3">
          <mxGeometry relative="1" as="geometry">
            <mxPoint x="463" y="588" as="sourcePoint" />
            <mxPoint x="425" y="532" as="targetPoint" />
          </mxGeometry>
        </mxCell>
        <mxCell id="2tcHuFUEEWmX2OaBf_0v-74" value="" style="endArrow=none;html=1;rounded=0;exitX=1;exitY=0.5;exitDx=0;exitDy=0;entryX=0;entryY=1;entryDx=0;entryDy=0;" edge="1" parent="1" source="2tcHuFUEEWmX2OaBf_0v-71" target="2tcHuFUEEWmX2OaBf_0v-3">
          <mxGeometry relative="1" as="geometry">
            <mxPoint x="360" y="554" as="sourcePoint" />
            <mxPoint x="370" y="530" as="targetPoint" />
          </mxGeometry>
        </mxCell>
      </root>
    </mxGraphModel>
  </diagram>
</mxfile>
